<?xml version="1.0" encoding="UTF-8"?>
<svg version="1.1" xmlns="http://www.w3.org/2000/svg" class="h-5 w-5 text-white">
<path d="M0 0 C-0.63973432 4.45373913 -2.34244472 8.19559398 -4.2890625 12.203125 C-4.62392166 12.9047879 -4.95878082 13.60645081 -5.30378723 14.32937622 C-6.02735978 15.84477056 -6.7533216 17.3590259 -7.48141479 18.87225342 C-9.44161029 22.94789913 -11.38282422 27.03256056 -13.32421875 31.1171875 C-13.91895744 32.36739182 -13.91895744 32.36739182 -14.52571106 33.64285278 C-18.25982866 41.5104046 -21.86133763 49.43472788 -25.4375 57.375 C-31.19027372 70.13308334 -37.13698803 82.79105275 -43.15548706 95.42572021 C-48.38138679 106.40208784 -53.50353456 117.41737149 -58.5 128.5 C-64.23299363 141.21631704 -70.15705993 153.8333041 -76.15576172 166.42626953 C-81.38157025 177.4024595 -86.5034215 188.41764443 -91.5 199.5 C-96.93048408 211.54323036 -102.51363808 223.50701209 -108.1875 235.4375 C-114.63786108 249.00249929 -121.00402768 262.60092213 -127.27392578 276.25048828 C-130.95698959 284.25829787 -134.66870076 292.25292744 -138.375 300.25 C-138.78525421 301.13534424 -139.19550842 302.02068848 -139.61819458 302.93286133 C-145.42131774 315.45497665 -151.24330068 327.96812092 -157.0847168 340.47241211 C-164.60505424 356.57178058 -172.07922719 372.69254742 -179.546875 388.81640625 C-181.177014 392.33596962 -182.80722194 395.85550104 -184.4375 399.375 C-184.8456192 400.25607422 -185.2537384 401.13714844 -185.67422485 402.04492188 C-190.89202937 413.30818 -196.12109492 424.56603498 -201.375 435.8125 C-201.65807007 436.41845001 -201.94114014 437.02440002 -202.23278809 437.64871216 C-202.51400513 438.25069427 -202.79522217 438.85267639 -203.08496094 439.47290039 C-210.60516233 455.57213176 -218.07930357 471.69271233 -225.546875 487.81640625 C-227.177014 491.33596962 -228.80722194 494.85550104 -230.4375 498.375 C-230.8456192 499.25607422 -231.2537384 500.13714844 -231.67422485 501.04492188 C-236.89202937 512.30818 -242.12109492 523.56603498 -247.375 534.8125 C-247.65807007 535.41845001 -247.94114014 536.02440002 -248.23278809 536.64871216 C-248.51400513 537.25069427 -248.79522217 537.85267639 -249.08496094 538.47290039 C-256.60516233 554.57213176 -264.07930357 570.69271233 -271.546875 586.81640625 C-273.177014 590.33596962 -274.80722194 593.85550104 -276.4375 597.375 C-277.0496788 598.69661133 -277.0496788 598.69661133 -277.67422485 600.04492188 C-282.89202937 611.30818 -288.12109492 622.56603498 -293.375 633.8125 C-293.65807007 634.41845001 -293.94114014 635.02440002 -294.23278809 635.64871216 C-294.51400513 636.25069427 -294.79522217 636.85267639 -295.08496094 637.47290039 C-302.60516233 653.57213176 -310.07930357 669.69271233 -317.546875 685.81640625 C-319.177014 689.33596962 -320.80722194 692.85550104 -322.4375 696.375 C-323.0496788 697.69661133 -323.0496788 697.69661133 -323.67422485 699.04492188 C-328.89202937 710.30818 -334.12109492 721.56603498 -339.375 732.8125 C-339.65807007 733.41845001 -339.94114014 734.02440002 -340.23278809 734.64871216 C-340.51400513 735.25069427 -340.79522217 735.85267639 -341.08496094 736.47290039 C-348.60516233 752.57213176 -356.07930357 768.69271233 -363.546875 784.81640625 C-365.177014 788.33596962 -366.80722194 791.85550104 -368.4375 795.375 C-369.0496788 796.69661133 -369.0496788 796.69661133 -369.67422485 798.04492188 C-374.89202937 809.30818 -380.12109492 820.56603498 -385.375 831.8125 C-385.65807007 832.41845001 -385.94114014 833.02440002 -386.23278809 833.64871216 C-386.51400513 834.25069427 -386.79522217 834.85267639 -387.08496094 835.47290039 C-394.60516233 851.57213176 -402.07930357 867.69271233 -409.546875 883.81640625 C-411.177014 887.33596962 -412.80722194 890.85550104 -414.4375 894.375 C-415.0496788 895.69661133 -415.0496788 895.69661133 -415.67422485 897.04492188 C-420.89202937 908.30818 -426.12109492 919.56603498 -431.375 930.8125 C-431.65807007 931.41845001 -431.94114014 932.02440002 -432.23278809 932.64871216 C-432.51400513 933.25069427 -432.79522217 933.85267639 -433.08496094 934.47290039 C-438.75021324 946.60106065 -444.38882224 958.74150819 -450.01965332 970.88568115 C-451.0882191 973.19026261 -452.15690386 975.49478888 -453.22558594 977.79931641 C-462.83590554 998.52419034 -472.4387815 1019.25241844 -482 1040 C-482.66 1040 -483.32 1040 -484 1040 C-488.76760672 964.74034361 -493.53490278 889.48066755 -498.30053711 814.22088623 C-498.37102399 813.1077458 -498.44151086 811.99460537 -498.51413371 810.84773341 C-500.0458503 786.65858179 -501.57751081 762.46942662 -503.10911351 738.28026779 C-503.8601668 726.41861537 -504.61123249 714.55696373 -505.36230469 702.6953125 C-505.43704682 701.51490981 -505.51178896 700.33450712 -505.588796 699.11833465 C-508.01319928 660.82982077 -510.43842184 622.54135884 -512.86406742 584.25292364 C-515.35587567 544.92005268 -517.84686107 505.58712968 -520.33680502 466.25414065 C-520.68816168 460.70385804 -521.0395278 455.15357602 -521.39089966 449.60329437 C-521.46005718 448.51087518 -521.52921471 447.418456 -521.60046791 446.2929332 C-522.71557848 428.67892064 -523.83156137 411.06496346 -524.94786718 393.45102661 C-526.06899576 375.76069949 -527.18921318 358.07031486 -528.30848956 340.37987044 C-528.97421943 329.8582867 -529.64065886 319.33674844 -530.30809603 308.81527286 C-530.75324481 301.79686337 -531.19748728 294.77839691 -531.64097752 287.75988243 C-531.89409889 283.75449557 -532.14762876 279.74913568 -532.40225875 275.74384442 C-532.63359369 272.10485902 -532.86378191 268.46580302 -533.09303002 264.82668558 C-533.21524717 262.89142053 -533.3387102 260.95623429 -533.46221411 259.02105093 C-533.5697204 257.30896779 -533.5697204 257.30896779 -533.67939854 255.56229711 C-533.74179079 254.57712348 -533.80418304 253.59194986 -533.86846596 252.57692249 C-533.98024493 250.38702752 -534 248.19274589 -534 246 C-520.43882905 239.38857869 -506.81148424 232.95930398 -493.0625 226.75 C-481.65963486 221.60003451 -470.30935833 216.35218617 -459 211 C-447.19702299 205.41525829 -435.34701673 199.94908036 -423.44775391 194.57275391 C-412.91813528 189.8125149 -402.44543768 184.94205593 -392 180 C-380.19686871 174.41557772 -368.34702281 168.94908311 -356.44775391 163.57275391 C-345.91813405 158.81251435 -335.44546628 153.94199723 -325 149 C-313.15149238 143.39440938 -301.25687847 137.90458643 -289.31298828 132.50537109 C-279.16944817 127.91828762 -269.07048166 123.2452386 -259 118.5 C-248.24695447 113.43313543 -237.45669128 108.45894771 -226.625 103.5625 C-214.65121464 98.14949881 -202.7433242 92.6097972 -190.86529541 86.99002075 C-180.4518023 82.06558114 -169.99726292 77.24310353 -159.5 72.5 C-148.1411573 67.36693598 -136.83341694 62.13591013 -125.5625 56.8125 C-124.48613785 56.30417633 -124.48613785 56.30417633 -123.38803101 55.7855835 C-122.31846664 55.28046234 -122.31846664 55.28046234 -121.22729492 54.76513672 C-109.74169288 49.34137336 -98.22012349 43.99953886 -86.6796875 38.69335938 C-80.04931798 35.64346208 -73.42437211 32.58178624 -66.79827881 29.52261353 C-62.64950348 27.60724171 -58.50053848 25.69228088 -54.3515625 23.77734375 C-53.51408478 23.39080124 -52.67660706 23.00425873 -51.81375122 22.60600281 C-46.43586262 20.12391267 -41.05764361 17.64253971 -35.67921448 15.16162109 C-32.05481791 13.489762 -28.43052675 11.81767445 -24.8062439 10.14556885 C-23.06722214 9.34333003 -21.32814784 8.5412051 -19.58901978 7.73919678 C-17.1777051 6.62719616 -14.76656776 5.5148119 -12.35546875 4.40234375 C-11.27711258 3.90523643 -11.27711258 3.90523643 -10.17697144 3.39808655 C-2.81430936 0 -2.81430936 0 0 0 Z " fill="#F42DB1" transform="translate(794,220)"/>
<path d="M0 0 C4.33545246 0.64308192 7.8237572 2.18063218 11.765625 4.0703125 C12.75166718 4.53937515 12.75166718 4.53937515 13.75762939 5.01791382 C15.1789572 5.69444927 16.59914723 6.37337917 18.01831055 7.05444336 C21.85527072 8.8950593 25.70121982 10.71670037 29.546875 12.5390625 C30.33690918 12.91383728 31.12694336 13.28861206 31.94091797 13.67474365 C39.75367303 17.3729487 47.62111646 20.94545031 55.5 24.5 C67.4335674 29.8896633 79.29908297 35.41019956 91.13525391 41.01025391 C101.5485607 45.93459734 112.00284036 50.75717198 122.5 55.5 C134.43277184 60.89146651 146.29904778 66.41018291 158.13525391 72.01025391 C168.5485607 76.93459734 179.00284036 81.75717198 189.5 86.5 C200.71498231 91.56715475 211.87567374 96.73681805 223 102 C234.84850762 107.60559062 246.74312153 113.09541357 258.68701172 118.49462891 C269.49963836 123.38428482 280.25761744 128.38056534 290.99230957 133.43878174 C301.08197442 138.19069439 311.21259125 142.84337767 321.375 147.4375 C332.77510465 152.59207536 344.12447298 157.84449111 355.4375 163.1875 C356.51359024 163.69568771 356.51359024 163.69568771 357.61141968 164.21414185 C358.32448273 164.55089935 359.03754578 164.88765686 359.7722168 165.23461914 C371.25797114 170.65848634 382.77971119 176.00038513 394.3203125 181.30664062 C400.94710937 184.35489454 407.56848675 187.4149179 414.19100952 190.47244263 C418.39413481 192.41290388 422.59745348 194.35294614 426.80078125 196.29296875 C428.06907524 196.8783567 428.06907524 196.8783567 429.36299133 197.47557068 C435.15176924 200.14730106 440.94102684 202.81799008 446.73046875 205.48828125 C462.89651476 212.94513192 479.0589755 220.40967964 495.2131958 227.89212036 C496.95136113 228.6971941 498.68959849 229.50211234 500.42791748 230.30685425 C502.86626413 231.43578724 505.3042714 232.56545008 507.7421875 233.6953125 C508.4273645 234.01243698 509.1125415 234.32956146 509.81848145 234.65629578 C515.16072329 237.1336873 520.48944367 239.63951045 525.81716919 242.1479187 C526.60509385 242.51880332 527.39301851 242.88968794 528.20481968 243.27181149 C530.13658408 244.18112772 532.06829719 245.09055292 534 246 C531.37335484 290.58258617 528.63302455 335.15707704 525.80605875 379.72738086 C525.24851314 388.51857238 524.69243654 397.3098567 524.136368 406.10114175 C523.11121358 422.30793769 522.08497583 438.51466484 521.05806732 454.72134972 C520.04485783 470.71189581 519.03216262 486.70247435 518.02011871 502.69309425 C517.95662172 503.69636281 517.89312473 504.69963136 517.82770358 505.73330199 C517.50509032 510.83071397 517.18248591 515.9281265 516.85988489 521.02553926 C514.5891874 556.90453795 512.31739042 592.78346695 510.04492188 628.66235352 C507.84057744 663.46570296 505.63674658 698.26908487 503.43359375 733.07250977 C503.33129305 734.68855936 503.33129305 734.68855936 503.22692567 736.33725642 C502.54187841 747.15899305 501.85684141 757.98073032 501.17181192 768.80246808 C499.77697452 790.83737607 498.38206879 812.87227974 496.98712158 834.90718079 C496.92301825 835.91977281 496.85891492 836.93236483 496.79286906 837.97564145 C492.52972662 905.31716695 488.26499238 972.65859165 484 1040 C483.34 1040 482.68 1040 482 1040 C473.70725721 1022.42939487 465.43913102 1004.8492284 457.31640625 987.19921875 C453.10175588 978.04216108 448.86332997 968.89611623 444.625 959.75 C444.21492706 958.86501831 443.80485413 957.98003662 443.38235474 957.0682373 C437.57904236 944.54575878 431.75687247 932.03224971 425.9152832 919.52758789 C418.39494576 903.42821942 410.92077281 887.30745258 403.453125 871.18359375 C401.822986 867.66403038 400.19277806 864.14449896 398.5625 860.625 C398.1543808 859.74392578 397.7462616 858.86285156 397.32577515 857.95507812 C392.10797063 846.69182 386.87890508 835.43396502 381.625 824.1875 C381.34192993 823.58154999 381.05885986 822.97559998 380.76721191 822.35128784 C380.34538635 821.44831467 380.34538635 821.44831467 379.91503906 820.52709961 C372.39483767 804.42786824 364.92069643 788.30728767 357.453125 772.18359375 C355.822986 768.66403038 354.19277806 765.14449896 352.5625 761.625 C352.1543808 760.74392578 351.7462616 759.86285156 351.32577515 758.95507812 C346.10797063 747.69182 340.87890508 736.43396502 335.625 725.1875 C335.34192993 724.58154999 335.05885986 723.97559998 334.76721191 723.35128784 C334.34538635 722.44831467 334.34538635 722.44831467 333.91503906 721.52709961 C326.39483767 705.42786824 318.92069643 689.30728767 311.453125 673.18359375 C309.822986 669.66403038 308.19277806 666.14449896 306.5625 662.625 C306.1543808 661.74392578 305.7462616 660.86285156 305.32577515 659.95507812 C300.10797063 648.69182 294.87890508 637.43396502 289.625 626.1875 C289.34192993 625.58154999 289.05885986 624.97559998 288.76721191 624.35128784 C288.34538635 623.44831467 288.34538635 623.44831467 287.91503906 622.52709961 C280.39483767 606.42786824 272.92069643 590.30728767 265.453125 574.18359375 C263.822986 570.66403038 262.19277806 567.14449896 260.5625 563.625 C260.1543808 562.74392578 259.7462616 561.86285156 259.32577515 560.95507812 C254.10797063 549.69182 248.87890508 538.43396502 243.625 527.1875 C243.34192993 526.58154999 243.05885986 525.97559998 242.76721191 525.35128784 C242.34538635 524.44831467 242.34538635 524.44831467 241.91503906 523.52709961 C234.39483767 507.42786824 226.92069643 491.30728767 219.453125 475.18359375 C217.822986 471.66403038 216.19277806 468.14449896 214.5625 464.625 C214.1543808 463.74392578 213.7462616 462.86285156 213.32577515 461.95507812 C208.10797063 450.69182 202.87890508 439.43396502 197.625 428.1875 C197.34192993 427.58154999 197.05885986 426.97559998 196.76721191 426.35128784 C196.34538635 425.44831467 196.34538635 425.44831467 195.91503906 424.52709961 C188.39483767 408.42786824 180.92069643 392.30728767 173.453125 376.18359375 C171.822986 372.66403038 170.19277806 369.14449896 168.5625 365.625 C168.1543808 364.74392578 167.7462616 363.86285156 167.32577515 362.95507812 C162.10797063 351.69182 156.87890508 340.43396502 151.625 329.1875 C151.34192993 328.58154999 151.05885986 327.97559998 150.76721191 327.35128784 C150.34538635 326.44831467 150.34538635 326.44831467 149.91503906 325.52709961 C142.39483767 309.42786824 134.92069643 293.30728767 127.453125 277.18359375 C125.822986 273.66403038 124.19277806 270.14449896 122.5625 266.625 C122.1543808 265.74392578 121.7462616 264.86285156 121.32577515 263.95507812 C116.10797063 252.69182 110.87890508 241.43396502 105.625 230.1875 C105.34192993 229.58154999 105.05885986 228.97559998 104.76721191 228.35128784 C104.34538635 227.44831467 104.34538635 227.44831467 103.91503906 226.52709961 C96.39483767 210.42786824 88.92069643 194.30728767 81.453125 178.18359375 C79.822986 174.66403038 78.19277806 171.14449896 76.5625 167.625 C75.9503212 166.30338867 75.9503212 166.30338867 75.32577515 164.95507812 C70.10797063 153.69182 64.87890508 142.43396502 59.625 131.1875 C59.34192993 130.58154999 59.05885986 129.97559998 58.76721191 129.35128784 C58.48599487 128.74930573 58.20477783 128.14732361 57.91503906 127.52709961 C50.39483768 111.42786825 42.92069478 95.30728843 35.453125 79.18359375 C33.82298923 75.66402888 32.19278456 72.14449595 30.5625 68.625 C30.15637482 67.74824615 29.75024963 66.87149231 29.33181763 65.96817017 C22.93653731 52.16348875 16.51911366 38.36934869 10.078125 24.5859375 C9.58505859 23.52729492 9.09199219 22.46865234 8.58398438 21.37792969 C7.41905689 18.89366078 6.24313104 16.41630127 5.05664062 13.94238281 C4.7323407 13.2610025 4.40804077 12.57962219 4.07391357 11.87759399 C3.4441956 10.5548595 2.80998978 9.2342496 2.17071533 7.91610718 C0.82397718 5.07573051 0 3.18657975 0 0 Z " fill="#AD23F2" transform="translate(1126,220)"/>
<path d="M0 0 C1.39665305 0.00394052 1.39665305 0.00394052 2.82152131 0.00796065 C3.80530864 0.0068068 4.78909597 0.00565296 5.80269504 0.00446415 C9.14327613 0.00178922 12.4838103 0.00632681 15.82438901 0.01075396 C18.22588599 0.01031844 20.62738293 0.00944388 23.02887961 0.00816479 C28.27287671 0.00638713 33.51686361 0.00774454 38.76085904 0.011803 C46.55857188 0.01782115 54.35627754 0.01814038 62.15399228 0.01726101 C75.26897067 0.01594495 88.38394403 0.01929671 101.49892095 0.02527842 C114.49060389 0.03118875 127.48228474 0.03504301 140.47396901 0.03613123 C141.2807541 0.03619997 142.08753918 0.03626871 142.9187723 0.03633953 C147.01576948 0.03667785 151.11276666 0.03697924 155.20976385 0.03726641 C184.25378726 0.03936867 213.29780794 0.04611118 242.34182981 0.05556902 C270.56350935 0.06474849 298.78518814 0.07183453 327.00686887 0.07607684 C327.87627788 0.07620836 328.7456869 0.07633989 329.64144164 0.0764754 C338.37214077 0.07779388 347.10283991 0.0790697 355.83353905 0.08031426 C373.62011106 0.0828507 391.40668303 0.08567195 409.19325498 0.08866534 C410.01111224 0.08880263 410.8289695 0.08893992 411.67161032 0.08908137 C466.31746263 0.09828717 520.96331338 0.11415372 575.60916379 0.13100848 C576.25406932 1.41405273 576.89820319 2.69748487 577.54200891 3.98108134 C577.90079328 4.69575111 578.25957766 5.41042089 578.62923428 6.14674732 C579.66660637 8.24732407 580.61587622 10.36484429 581.50589231 12.53188738 C581.82542371 13.30561694 582.14495511 14.07934649 582.47416928 14.87652239 C582.80875653 15.69526842 583.14334378 16.51401446 583.48807004 17.35757098 C583.85218488 18.24149523 584.21629972 19.12541949 584.59144834 20.03612933 C585.78761125 22.94162989 586.97960382 25.84882246 588.17166379 28.75600848 C589.01900176 30.81603525 589.86666385 32.87592874 590.71463254 34.93569598 C592.47516524 39.21285028 594.23430506 43.49057345 595.99246457 47.76870379 C599.62985312 56.61658719 603.28416292 65.45747012 606.93841794 74.29839739 C608.90483728 79.05613471 610.87031732 83.81425995 612.83572629 88.57241473 C613.22643811 89.5182593 613.61714994 90.46410387 614.01970151 91.4386104 C616.45658252 97.3385083 618.89164138 103.23915505 621.32535031 109.14036211 C622.56444511 112.14463841 623.80405401 115.14870217 625.0437341 118.15273699 C626.65178829 122.04956696 628.25765198 125.94728943 629.86209348 129.84560809 C633.42762008 138.49934113 637.02143857 147.13748187 640.72635129 155.73257098 C641.35165118 157.1909269 641.97681856 158.64933965 642.60183957 160.10781512 C643.73412628 162.74905447 644.88280747 165.38222041 646.04226926 168.01162371 C646.53356321 169.15574725 647.02485715 170.29987078 647.53103879 171.47866473 C648.17444211 172.94831683 648.17444211 172.94831683 648.83084348 174.44765887 C649.73900724 177.57865884 649.83464378 179.105163 648.60916379 182.13100848 C646.39798215 183.85342059 646.39798215 183.85342059 643.44900754 185.40835223 C642.35781613 185.99680926 641.26662473 186.58526629 640.14236692 187.19155535 C639.55721311 187.4969826 638.9720593 187.80240984 638.36917356 188.11709246 C635.88864597 189.41201758 633.42855452 190.74372823 630.96673825 192.07378802 C629.69885631 192.75843732 628.42994328 193.44118043 627.16003659 194.12206683 C621.22242747 197.311813 615.40954786 200.69858798 609.60916379 204.13100848 C601.17836034 209.09414009 592.67488521 213.90469412 584.10916379 218.63100848 C574.50100316 223.9330769 564.98737291 229.37061804 555.52713254 234.93178973 C547.40105145 239.69794561 539.1915659 244.30298659 530.95974973 248.88344988 C523.83257939 252.85936901 516.76961601 256.93274066 509.73416379 261.06850848 C500.13350875 266.71000011 490.42964127 272.14313462 480.68045285 277.52309832 C472.22164567 282.20344434 463.86079739 287.03287182 455.52713254 291.93178973 C447.40105145 296.69794561 439.1915659 301.30298659 430.95974973 305.88344988 C423.83257939 309.85936901 416.76961601 313.93274066 409.73416379 318.06850848 C400.13350875 323.71000011 390.42964127 329.14313462 380.68045285 334.52309832 C372.22164567 339.20344434 363.86079739 344.03287182 355.52713254 348.93178973 C347.41265486 353.69113991 339.21521109 358.29017925 330.99490598 362.86367449 C322.54354959 367.57795087 314.17470797 372.42464596 305.83767942 377.33803973 C304.00904498 378.4134051 302.17677595 379.48261819 300.3406091 380.54507098 C298.4437263 381.64644304 296.55833311 382.76774805 294.68240598 383.90444598 C293.72753293 384.4638991 292.77265988 385.02335223 291.78885129 385.59975848 C290.93790891 386.10958269 290.08696653 386.61940691 289.21023801 387.14468035 C285.86395761 388.41359089 284.03788966 388.07323885 280.60916379 387.13100848 C278.01394895 385.9544948 278.01394895 385.9544948 275.39822629 384.46303973 C274.41338254 383.90680926 273.42853879 383.35057879 272.41385129 382.77749285 C271.36455442 382.17227801 270.31525754 381.56706316 269.23416379 380.94350848 C268.13072629 380.31637957 267.02728879 379.68925066 265.89041379 379.04311785 C257.43572216 374.22355844 249.03320604 369.3137257 240.63968137 364.38857684 C232.4012282 359.5634568 224.08573224 354.88530527 215.74710324 350.23598894 C206.61778637 345.14476239 197.53821465 339.97058373 188.47049192 334.77065691 C183.59228152 331.97525922 178.70982125 329.18729973 173.82782224 326.39852557 C170.83680052 324.68985348 167.84604319 322.98071874 164.85525754 321.27163348 C163.64415853 320.57957399 162.43305827 319.8875167 161.22195676 319.1954616 C158.84077186 317.83478452 156.45958697 316.47410743 154.07840207 315.11343035 C153.50059995 314.78325915 152.92279782 314.45308794 152.32748654 314.11291155 C151.16386663 313.44798298 150.00025172 312.78304564 148.83664182 312.11809954 C145.93036703 310.45732022 143.024005 308.79669394 140.11746457 307.13637957 C134.83754659 304.12011326 129.55829363 301.10271124 124.28222898 298.07970843 C121.32913363 296.38773007 118.3755339 294.69663383 115.42166379 293.00600848 C114.84065915 292.67345049 114.25965451 292.34089251 113.66104367 291.99825701 C105.42131228 287.28430949 97.15119538 282.62732853 88.85916379 278.00600848 C79.71470809 272.90886249 70.65557288 267.68102102 61.62771848 262.38052019 C54.50330517 258.20811535 47.32338433 254.14587903 40.10916379 250.13100848 C31.88716347 245.55528656 23.72345389 240.89513065 15.60916379 236.13100848 C6.5473212 230.81261572 -2.5827632 225.63229739 -11.76070926 220.51723894 C-22.53647175 214.50654146 -33.24529455 208.38060078 -43.95060489 202.24575457 C-48.39092899 199.70171314 -52.83549179 197.16516902 -57.28146121 194.63100848 C-59.21389654 193.52899305 -61.14628836 192.42690134 -63.0786719 191.3247951 C-64.31905694 190.61762479 -65.5596343 189.91079171 -66.80041263 189.2043117 C-68.51991911 188.22513651 -70.23859992 187.24451178 -71.95724246 186.26382098 C-72.93636599 185.70581805 -73.91548953 185.14781512 -74.92428347 184.57290301 C-76.78323957 183.48619662 -78.59919243 182.32543766 -80.39083621 181.13100848 C-79.78448579 176.12397961 -78.20278897 171.7993976 -76.24239871 167.19350848 C-75.91843112 166.41773455 -75.59446353 165.64196062 -75.26067874 164.8426784 C-74.18480167 162.2696767 -73.10020013 159.70044359 -72.01583621 157.13100848 C-71.2501325 155.30318901 -70.48517362 153.47505737 -69.72091433 151.64663348 C-68.51776883 148.76863037 -67.31407954 145.89086537 -66.10806033 143.01406512 C-62.06250449 133.36336984 -58.06877341 123.69156163 -54.08071658 114.0169948 C-52.08182465 109.16879751 -50.08018272 104.32173641 -48.07833621 99.47475848 C-47.48772906 98.04468462 -47.48772906 98.04468462 -46.88519046 96.58572039 C-42.21587681 85.28252582 -37.52956934 73.98638144 -32.84005496 62.69155535 C-28.92561449 53.26072366 -25.02648877 43.82374026 -21.14083621 34.38100848 C-20.25741394 32.23580919 -19.37395072 30.09062676 -18.49044558 27.9454616 C-17.19637806 24.80341636 -15.9031621 21.66103561 -14.61276004 18.51748309 C-13.42637438 15.62734234 -12.23702509 12.73843769 -11.04708621 9.84975848 C-10.69066043 8.97899676 -10.33423465 8.10823504 -9.96700808 7.2110866 C-9.64087527 6.42089129 -9.31474246 5.63069598 -8.97872683 4.81655535 C-8.69468997 4.1252553 -8.4106531 3.43395525 -8.11800906 2.72170672 C-6.42796606 -0.97528007 -3.70617877 0.00995686 0 0 Z " fill="#EA075D" transform="translate(675.3908362090588,1311.868991523981)"/>
<path d="M0 0 C0.66 0 1.32 0 2 0 C11.08503784 21.96989572 20.16853327 43.94038003 29.1875 65.9375 C29.51172943 66.72825928 29.83595886 67.51901855 30.17001343 68.33374023 C32.770645 74.67703493 35.36980092 81.020934 37.96887207 87.36486816 C40.24937296 92.93103596 42.53049122 98.49695022 44.8125 104.0625 C45.30065689 105.25309525 45.30065689 105.25309525 45.79867554 106.46774292 C51.34325172 119.98782242 56.91757561 133.49551022 62.5 147 C68.41345981 161.30530035 74.3152197 175.61524186 80.1875 189.9375 C80.51317963 190.73179413 80.83885925 191.52608826 81.17440796 192.3444519 C83.77357479 198.684176 86.37126404 205.02450526 88.96887207 211.36486816 C91.24937296 216.93103596 93.53049122 222.49695022 95.8125 228.0625 C96.13793793 228.85623016 96.46337585 229.64996033 96.79867554 230.46774292 C102.34325172 243.98782242 107.91757561 257.49551022 113.5 271 C119.41345981 285.30530035 125.3152197 299.61524186 131.1875 313.9375 C131.51317963 314.73179413 131.83885925 315.52608826 132.17440796 316.3444519 C134.77357479 322.684176 137.37126404 329.02450526 139.96887207 335.36486816 C142.24937296 340.93103597 144.53051846 346.49693905 146.8125 352.0625 C147.1386026 352.85789185 147.4647052 353.65328369 147.8006897 354.47277832 C152.90467217 366.91925231 158.03507582 379.3546782 163.17544556 391.78616333 C169.77355827 407.74487739 176.36363293 423.70691989 182.91778564 439.68374634 C183.71724501 441.6315469 184.51764737 443.57896071 185.31903076 445.52597046 C186.42627277 448.21675689 187.53001256 450.90895306 188.6328125 453.6015625 C188.9610199 454.39723129 189.28922729 455.19290009 189.62738037 456.01268005 C189.92710754 456.74664505 190.22683472 457.48061005 190.53564453 458.23681641 C190.79588409 458.87084381 191.05612366 459.50487122 191.32424927 460.15811157 C192.02200633 462.05998248 192.50866461 464.03465845 193 466 C66.28 466 -60.44 466 -191 466 C-187.62525062 455.87575186 -187.62525062 455.87575186 -186.16918945 452.37451172 C-185.67545837 451.18061577 -185.67545837 451.18061577 -185.17175293 449.96260071 C-184.82245728 449.12673935 -184.47316162 448.29087799 -184.11328125 447.4296875 C-183.55247864 446.07673836 -183.55247864 446.07673836 -182.98034668 444.69645691 C-182.17799685 442.76168694 -181.37425727 440.8274928 -180.56924438 438.89382935 C-178.85340998 434.77221854 -177.14442063 430.64778055 -175.4349823 426.52351379 C-174.55952638 424.41154305 -173.68372103 422.29971711 -172.80757141 420.18803406 C-168.78436815 410.48967354 -164.79322403 400.77835798 -160.8125 391.0625 C-160.15644434 389.46214526 -159.50035706 387.86180348 -158.84423828 386.26147461 C-156.89553544 381.50790511 -154.94768015 376.7539886 -153 372 C-150.39660671 365.64551617 -147.7926889 359.29124792 -145.1875 352.9375 C-144.86206207 352.14376984 -144.53662415 351.35003967 -144.20132446 350.53225708 C-138.25468634 336.03177634 -132.27281351 321.54595329 -126.2855835 307.06219482 C-120.77728342 293.73602035 -115.28279158 280.40432363 -109.8125 267.0625 C-109.32398056 265.87105881 -109.32398056 265.87105881 -108.82559204 264.6555481 C-106.54957637 259.10403398 -104.27465067 253.55207352 -102 248 C-99.39660671 241.64551617 -96.7926889 235.29124792 -94.1875 228.9375 C-93.86206207 228.14376984 -93.53662415 227.35003967 -93.20132446 226.53225708 C-87.25468634 212.03177634 -81.27281351 197.54595329 -75.2855835 183.06219482 C-69.77728342 169.73602035 -64.28279158 156.40432363 -58.8125 143.0625 C-58.48682037 142.26820587 -58.16114075 141.47391174 -57.82559204 140.6555481 C-55.54957637 135.10403398 -53.27465067 129.55207352 -51 124 C-48.39660671 117.64551617 -45.7926889 111.29124792 -43.1875 104.9375 C-42.69934311 103.74690475 -42.69934311 103.74690475 -42.20132446 102.53225708 C-36.26005616 88.0448703 -30.28404288 73.57193523 -24.30169678 59.10147095 C-16.16392714 39.41621327 -8.07288098 19.71194572 0 0 Z " fill="#DB1CA7" transform="translate(959,614)"/>
</svg>
